<svg width="48" height="48" viewBox="0 0 48 48" fill="none" xmlns="http://www.w3.org/2000/svg">
<rect width="48" height="48" rx="24" fill="#1152D4" fill-opacity="0.1"/>
<path d="M17 34C16.45 34 15.9792 33.8042 15.5875 33.4125C15.1958 33.0208 15 32.55 15 32V18C15 17.45 15.1958 16.9792 15.5875 16.5875C15.9792 16.1958 16.45 16 17 16H18V14H20V16H28V14H30V16H31C31.55 16 32.0208 16.1958 32.4125 16.5875C32.8042 16.9792 33 17.45 33 18V32C33 32.55 32.8042 33.0208 32.4125 33.4125C32.0208 33.8042 31.55 34 31 34H17ZM17 32H31V22H17V32ZM17 20H31V18H17V20ZM17 20V18V20ZM24 26C23.7167 26 23.4792 25.9042 23.2875 25.7125C23.0958 25.5208 23 25.2833 23 25C23 24.7167 23.0958 24.4792 23.2875 24.2875C23.4792 24.0958 23.7167 24 24 24C24.2833 24 24.5208 24.0958 24.7125 24.2875C24.9042 24.4792 25 24.7167 25 25C25 25.2833 24.9042 25.5208 24.7125 25.7125C24.5208 25.9042 24.2833 26 24 26ZM20 26C19.7167 26 19.4792 25.9042 19.2875 25.7125C19.0958 25.5208 19 25.2833 19 25C19 24.7167 19.0958 24.4792 19.2875 24.2875C19.4792 24.0958 19.7167 24 20 24C20.2833 24 20.5208 24.0958 20.7125 24.2875C20.9042 24.4792 21 24.7167 21 25C21 25.2833 20.9042 25.5208 20.7125 25.7125C20.5208 25.9042 20.2833 26 20 26ZM28 26C27.7167 26 27.4792 25.9042 27.2875 25.7125C27.0958 25.5208 27 25.2833 27 25C27 24.7167 27.0958 24.4792 27.2875 24.2875C27.4792 24.0958 27.7167 24 28 24C28.2833 24 28.5208 24.0958 28.7125 24.2875C28.9042 24.4792 29 24.7167 29 25C29 25.2833 28.9042 25.5208 28.7125 25.7125C28.5208 25.9042 28.2833 26 28 26ZM24 30C23.7167 30 23.4792 29.9042 23.2875 29.7125C23.0958 29.5208 23 29.2833 23 29C23 28.7167 23.0958 28.4792 23.2875 28.2875C23.4792 28.0958 23.7167 28 24 28C24.2833 28 24.5208 28.0958 24.7125 28.2875C24.9042 28.4792 25 28.7167 25 29C25 29.2833 24.9042 29.5208 24.7125 29.7125C24.5208 29.9042 24.2833 30 24 30ZM20 30C19.7167 30 19.4792 29.9042 19.2875 29.7125C19.0958 29.5208 19 29.2833 19 29C19 28.7167 19.0958 28.4792 19.2875 28.2875C19.4792 28.0958 19.7167 28 20 28C20.2833 28 20.5208 28.0958 20.7125 28.2875C20.9042 28.4792 21 28.7167 21 29C21 29.2833 20.9042 29.5208 20.7125 29.7125C20.5208 29.9042 20.2833 30 20 30ZM28 30C27.7167 30 27.4792 29.9042 27.2875 29.7125C27.0958 29.5208 27 29.2833 27 29C27 28.7167 27.0958 28.4792 27.2875 28.2875C27.4792 28.0958 27.7167 28 28 28C28.2833 28 28.5208 28.0958 28.7125 28.2875C28.9042 28.4792 29 28.7167 29 29C29 29.2833 28.9042 29.5208 28.7125 29.7125C28.5208 29.9042 28.2833 30 28 30Z" fill="#F1F5F9"/>
</svg>
